<?xml version="1.0" standalone="no"?>
<!DOCTYPE svg PUBLIC "-//W3C//DTD SVG 20010904//EN"
 "http://www.w3.org/TR/2001/REC-SVG-20010904/DTD/svg10.dtd">
<svg version="1.1" id="Layer_1" xmlns="http://www.w3.org/2000/svg" xmlns:xlink="http://www.w3.org/1999/xlink" x="0px" y="0px"
	 width="300px" height="300px" viewBox="0 0 300 43" enable-background="new 0 0 300 300" xml:space="preserve">

<g transform="translate(0.000000,121.000000) scale(0.100000,-0.100000)"
fill="#000000" stroke="none">
<path d="M885 1136 c-53 -21 -168 -89 -122 -73 12 4 16 3 11 -4 -3 -6 -14 -9
-24 -6 -12 3 -29 -7 -48 -27 -35 -37 -82 -107 -82 -121 0 -5 5 -3 10 5 8 13
10 13 10 -1 0 -9 -7 -22 -15 -29 -9 -7 -14 -19 -11 -26 3 -7 0 -16 -6 -20 -7
-5 -8 -2 -3 6 5 9 4 11 -3 6 -26 -16 -44 -178 -21 -192 5 -2 6 -12 3 -22 -5
-14 -4 -14 4 -2 6 8 9 18 6 22 -3 4 2 31 11 59 8 29 13 55 10 57 -3 3 -5 -1
-6 -9 0 -8 -4 -4 -9 9 -10 24 -4 52 11 52 6 0 5 -9 -1 -20 -6 -11 -7 -20 -2
-20 15 0 52 113 46 140 -4 21 -3 22 4 5 9 -18 11 -16 33 20 13 22 24 45 24 50
1 6 6 9 13 8 6 -2 31 12 55 30 24 18 58 39 75 46 17 7 29 18 26 23 -3 5 -12 4
-20 -3 -8 -6 -17 -9 -21 -6 -3 4 -12 2 -20 -4 -9 -9 -13 -8 -13 0 0 6 5 12 10
12 15 2 30 6 33 9 6 6 47 7 47 0 0 -4 28 -2 63 3 91 14 194 -5 263 -49 30 -19
60 -32 66 -28 6 4 8 3 5 -2 -3 -6 15 -32 41 -59 47 -51 92 -151 92 -205 0 -15
7 -33 15 -40 8 -7 15 -18 15 -24 0 -6 -5 -4 -10 4 -8 12 -9 10 -8 -10 4 -75
-63 -233 -123 -290 -30 -28 -31 -30 -10 -25 16 5 21 4 17 -4 -4 -6 -17 -10
-29 -9 -12 2 -53 -13 -92 -33 -40 -21 -93 -39 -124 -43 -66 -9 -199 11 -226
33 -18 15 -19 15 -7 -1 12 -15 11 -17 -6 -15 -12 0 -18 7 -15 17 2 9 -13 26
-39 44 -24 16 -61 51 -83 76 -22 26 -44 45 -49 42 -5 -3 -7 1 -4 10 3 8 -2 39
-13 69 -10 30 -19 72 -19 94 0 32 -3 37 -11 22 -5 -9 -8 -21 -4 -26 3 -5 1
-20 -4 -34 -8 -20 -4 -32 15 -61 14 -20 23 -42 21 -49 -2 -7 -11 4 -20 23 -8
19 -16 27 -16 18 -1 -26 21 -68 32 -61 6 3 7 1 3 -6 -5 -7 8 -33 30 -61 34
-45 55 -67 39 -40 -8 13 5 13 25 0 8 -5 10 -10 3 -10 -17 0 38 -55 75 -74 17
-9 32 -13 32 -9 0 5 4 3 8 -3 28 -42 237 -54 327 -18 56 21 105 56 105 73 0 6
8 11 18 11 14 0 15 -2 2 -10 -8 -5 -11 -10 -6 -10 4 0 21 11 38 25 16 14 26
25 22 25 -5 0 1 7 13 15 25 17 73 96 73 120 0 8 7 27 16 41 20 30 32 192 16
220 -9 16 -10 12 -8 -18 2 -21 -1 -35 -5 -32 -5 3 -7 30 -3 59 5 48 1 63 -27
120 -18 38 -49 80 -73 101 -23 20 -56 49 -73 65 -29 26 -39 31 -59 28 -4 0
-10 3 -13 8 -12 19 -109 40 -186 41 -61 1 -94 -4 -140 -22z m170 2 c3 -3 -7
-5 -22 -4 -16 0 -44 -3 -63 -8 -32 -7 -34 -7 -15 7 18 14 88 18 100 5z m65 8
c0 -9 -40 -13 -46 -5 -3 5 6 9 20 9 14 0 26 -2 26 -4z m30 -26 c11 -8 7 -9
-15 -4 -37 8 -45 14 -19 14 10 0 26 -5 34 -10z m98 -33 c6 -5 12 -6 12 -2 0 4
7 2 15 -5 8 -7 15 -18 15 -24 0 -6 -7 -2 -15 8 -9 12 -15 15 -15 7 0 -10 -3
-11 -13 -2 -8 6 -16 9 -19 6 -3 -3 -10 1 -16 8 -9 11 -8 14 6 14 9 0 23 -4 30
-10z m-493 -57 c-3 -5 -13 -10 -21 -10 -8 0 -12 5 -9 10 3 6 13 10 21 10 8 0
12 -4 9 -10z m583 -12 c-2 -4 6 -14 17 -22 20 -15 10 -23 -11 -8 -15 10 -27
45 -13 40 6 -2 9 -7 7 -10z m-638 -32 c0 -3 -4 -8 -10 -11 -5 -3 -10 -1 -10 4
0 6 5 11 10 11 6 0 10 -2 10 -4z m-17 -42 c-7 -19 -10 -18 -16 5 -3 13 -1 18
9 14 7 -2 10 -11 7 -19z m692 16 c3 -5 2 -10 -4 -10 -5 0 -13 5 -16 10 -3 6
-2 10 4 10 5 0 13 -4 16 -10z m30 -20 c3 -5 1 -10 -4 -10 -6 0 -11 5 -11 10 0
6 2 10 4 10 3 0 8 -4 11 -10z m22 -72 c-3 -7 -5 -2 -5 12 0 14 2 19 5 13 2 -7
2 -19 0 -25z m20 -30 c-3 -8 -6 -5 -6 6 -1 11 2 17 5 13 3 -3 4 -12 1 -19z
m-847 -108 c0 -5 -5 -10 -11 -10 -5 0 -7 5 -4 10 3 6 8 10 11 10 2 0 4 -4 4
-10z m855 -115 c0 -24 -4 -47 -7 -50 -5 -5 -4 84 1 93 5 10 8 -4 6 -43z m-54
-137 c-35 -32 -41 -29 -12 8 10 13 21 20 25 17 3 -3 6 2 7 13 0 13 2 14 6 5 3
-7 -8 -27 -26 -43z m-701 -34 c0 -1 -9 -2 -19 -1 -11 0 -17 5 -15 9 3 4 0 8
-5 8 -6 0 -11 5 -11 10 0 6 11 3 25 -6 14 -9 25 -18 25 -20z m680 -8 c0 -3 -4
-8 -10 -11 -5 -3 -10 -1 -10 4 0 6 5 11 10 11 6 0 10 -2 10 -4z m-665 -16 c3
-5 -1 -10 -9 -10 -8 0 -18 5 -21 10 -3 6 1 10 9 10 8 0 18 -4 21 -10z m630
-10 c-3 -5 -11 -10 -16 -10 -6 0 -7 5 -4 10 3 6 11 10 16 10 6 0 7 -4 4 -10z
m-547 -66 c19 -3 27 -13 17 -21 -4 -5 -10 -3 -12 4 -2 7 -10 10 -17 7 -8 -3
-16 2 -20 11 -4 11 -2 14 7 8 6 -4 18 -8 25 -9z m442 -29 c-7 -9 -19 -14 -25
-11 -7 2 -18 -1 -25 -7 -10 -9 -11 -9 -8 3 3 8 12 15 21 15 8 0 19 4 23 8 14
14 26 7 14 -8z m-80 -20 c-7 -8 -17 -15 -23 -15 -6 0 -2 7 9 15 25 19 30 19
14 0z m-225 -5 l20 -9 -20 0 c-11 0 -27 4 -35 9 -13 9 -13 10 0 9 8 0 24 -4
35 -9z m175 -5 c0 -7 -81 -27 -87 -21 -3 3 10 9 28 15 39 11 59 13 59 6z
m-135 -15 c3 -6 -4 -10 -17 -10 -18 0 -20 2 -8 10 19 12 18 12 25 0z"/>
<path d="M940 689 l0 -289 25 0 25 0 0 278 c0 172 4 282 10 288 7 7 -2 10 -25
11 l-35 1 0 -289z"/>
<path d="M1080 955 c6 -15 10 -137 10 -291 l0 -265 23 3 22 3 0 257 c0 244 -1
258 -21 284 -28 39 -47 44 -34 9z"/>
<path d="M302 178 c-5 -7 -14 -35 -20 -61 -9 -46 -9 -48 12 -45 13 2 22 11 24
26 2 12 7 22 12 22 6 0 5 -11 0 -26 -9 -23 -8 -25 12 -22 19 2 23 9 23 38 0
29 -3 34 -19 32 -15 -3 -17 1 -12 22 7 28 -13 37 -32 14z"/>
<path d="M823 165 c13 -27 22 -31 33 -13 4 6 -1 17 -11 25 -28 20 -34 16 -22
-12z"/>
<path d="M1037 183 c-4 -3 -7 -15 -7 -26 0 -13 -5 -17 -15 -13 -9 3 -24 -3
-34 -13 -18 -18 -19 -18 -36 1 -20 24 -21 23 -28 -24 -6 -40 2 -47 26 -23 13
13 16 13 21 0 3 -8 14 -15 25 -15 14 0 19 5 15 14 -3 8 -1 23 5 33 10 15 11
14 9 -12 -2 -21 2 -30 14 -33 12 -2 19 9 27 48 6 28 11 55 11 60 0 11 -23 13
-33 3z"/>
<path d="M1457 183 c-4 -3 -7 -15 -7 -26 0 -13 -5 -17 -15 -13 -20 7 -57 -30
-53 -52 2 -9 13 -18 26 -20 16 -3 20 1 16 12 -3 8 -1 23 5 33 10 15 11 14 9
-12 -2 -21 2 -30 14 -33 12 -2 19 9 27 48 6 28 11 55 11 60 0 11 -23 13 -33 3z"/>
<path d="M1904 176 c-3 -8 -3 -19 0 -25 3 -5 2 -11 -3 -13 -5 -1 -11 -16 -13
-33 -2 -21 2 -30 14 -33 17 -3 24 17 31 87 2 27 -20 41 -29 17z"/>
<path d="M63 164 c-4 -10 8 -30 35 -57 34 -34 42 -38 48 -24 4 11 -5 31 -26
57 -34 43 -47 49 -57 24z"/>
<path d="M580 160 c0 -11 3 -20 8 -20 4 0 13 9 20 20 11 18 10 20 -8 20 -13 0
-20 -7 -20 -20z"/>
<path d="M766 164 c-38 -37 -27 -94 18 -94 16 0 18 2 7 9 -10 7 -12 21 -7 55
8 50 5 54 -18 30z"/>
<path d="M1223 125 c-9 -50 -8 -55 8 -55 12 0 21 12 28 38 16 54 14 72 -7 72
-15 0 -21 -12 -29 -55z"/>
<path d="M186 134 c-23 -23 -21 -64 3 -64 13 0 19 6 19 18 -1 9 2 27 6 40 9
26 -5 29 -28 6z"/>
<path d="M408 142 c-10 -2 -18 -12 -18 -22 0 -10 -3 -25 -6 -34 -4 -11 0 -16
14 -16 12 0 23 9 27 19 3 11 12 22 20 25 8 3 15 10 15 17 0 6 -6 9 -14 6 -8
-3 -16 -3 -18 1 -2 4 -11 6 -20 4z"/>
<path d="M473 123 c-17 -26 -11 -53 12 -53 9 0 15 9 15 24 0 14 5 28 11 32 9
5 10 -1 5 -20 -5 -19 -2 -28 9 -32 20 -8 22 -6 30 36 6 35 6 35 -30 36 -28 0
-40 -5 -52 -23z"/>
<path d="M633 143 c-23 -8 -14 -32 17 -48 32 -17 36 -14 20 15 -8 16 -8 18 5
14 8 -4 15 -1 15 5 0 6 -3 11 -7 12 -5 0 -15 2 -23 3 -8 2 -21 1 -27 -1z"/>
<path d="M1127 128 c-8 -29 0 -36 19 -17 13 14 13 17 1 28 -12 9 -16 7 -20
-11z"/>
<path d="M1340 125 c-15 -39 -12 -55 10 -55 16 0 20 7 20 34 0 44 -17 55 -30
21z"/>
<path d="M1550 126 c0 -13 -3 -31 -6 -40 -9 -23 23 -20 36 3 15 28 13 39 -10
51 -17 9 -20 8 -20 -14z"/>
<path d="M1615 135 c-7 -5 -15 -23 -18 -38 -4 -24 -1 -28 16 -25 13 2 24 13
28 28 l7 25 1 -27 c1 -21 6 -28 22 -28 17 0 20 5 17 37 -3 32 -6 36 -31 38
-16 0 -35 -4 -42 -10z"/>
<path d="M1759 127 c-1 -17 -2 -18 -6 -4 -9 33 -46 11 -41 -24 2 -17 10 -25
28 -26 14 -1 19 0 13 3 -21 9 -15 21 12 28 28 7 34 31 10 40 -10 4 -15 -1 -16
-17z"/>
<path d="M1817 138 c-9 -7 -13 -17 -9 -23 6 -9 47 -35 54 -35 9 0 5 60 -3 66
-7 4 -9 -1 -4 -15 8 -27 -3 -28 -13 -1 -6 17 -10 18 -25 8z"/>
<path d="M1957 127 c-23 -23 -18 -51 9 -55 18 -3 21 1 17 21 -3 14 1 28 8 32
9 6 10 1 5 -19 -5 -19 -2 -28 9 -32 21 -8 25 -3 31 37 6 33 5 34 -28 34 -19 0
-41 -8 -51 -18z"/>
<path d="M227 133 c-4 -3 -7 -19 -7 -35 0 -21 5 -28 19 -28 14 0 20 9 23 35 3
27 0 35 -12 35 -9 0 -20 -3 -23 -7z"/>
<path d="M870 125 c-15 -19 -9 -49 11 -53 12 -2 18 6 21 32 4 38 -10 48 -32
21z"/>
<path d="M1080 125 c-17 -20 -8 -49 15 -53 17 -2 20 3 20 33 0 37 -14 45 -35
20z"/>
<path d="M1286 118 c-10 -38 -7 -48 14 -48 13 0 20 7 20 19 0 11 3 26 6 35 4
11 0 16 -14 16 -12 0 -22 -9 -26 -22z"/>
<path d="M1500 125 c-15 -19 -9 -49 11 -53 12 -2 18 6 21 32 4 38 -10 48 -32
21z"/>
<path d="M610 85 c0 -10 10 -15 27 -15 26 0 26 1 7 15 -25 19 -34 19 -34 0z"/>
<path d="M1794 89 c-9 -15 1 -21 26 -17 21 3 21 3 1 15 -14 9 -22 9 -27 2z"/>
</g>
</svg>
